<svg width="108" height="296" viewBox="0 0 108 296" fill="none" xmlns="http://www.w3.org/2000/svg">
<g opacity="0.1">
<path d="M74.6871 95.7562V55.0264C74.6871 24.6912 50.2131 -0.000244141 20.1383 -0.000244141H-20.1485C-50.2233 -0.000244141 -74.6974 24.6802 -74.6974 55.0264V95.7562C-94.8765 116.865 -107.445 146.418 -107.445 179.167C-107.445 243.276 -59.3437 295.261 3.05176e-05 295.261C59.3437 295.261 107.445 243.287 107.445 179.167C107.445 146.418 94.8764 116.865 74.6974 95.7562H74.6871ZM-41.307 55.0264C-41.307 44.753 -31.6153 36.0779 -20.1383 36.0779H20.1485C31.6153 36.0779 41.3172 44.753 41.3172 55.0264V71.9797C28.5956 66.2477 14.6497 63.0731 0.0101776 63.0731C-14.6294 63.0731 -28.5752 66.2477 -41.2968 71.9797V55.0264H-41.307ZM3.05176e-05 259.172C-40.8376 259.172 -74.0546 223.281 -74.0546 179.156C-74.0546 151.731 -61.2106 127.48 -41.6844 113.062H-41.307V112.776C-29.5035 104.167 -15.2822 99.1402 3.05176e-05 99.1402C15.2823 99.1402 29.4933 104.167 41.307 112.776V113.062H41.6844C61.2106 127.48 74.0546 151.731 74.0546 179.156C74.0546 223.281 40.8377 259.172 3.05176e-05 259.172Z" fill="#2954B1"/>
<path d="M21.9864 166.369C21.9864 152.975 11.9487 142.112 -0.428078 142.112C-12.8049 142.112 -22.8426 152.975 -22.8426 166.369C-22.8426 175.933 -17.6865 184.11 -10.2624 188.073V210.139C-10.2624 215.07 -6.53006 219.109 -1.97393 219.109H1.12789C5.68402 219.109 9.41641 215.07 9.41641 210.139V188.073C16.8405 184.121 21.9966 175.933 21.9966 166.38L21.9864 166.369Z" fill="#2954B1"/>
</g>
</svg>
