<svg width="218" height="78" viewBox="0 0 218 78" fill="none" xmlns="http://www.w3.org/2000/svg">
<g clip-path="url(#clip0_89_1301)">
<path d="M60.1238 24.7412V23.3329L70.8296 13.2603H72.1547V19.6886H85.6519V24.7429H72.1547V44.8504C72.1547 47.09 72.6741 48.7318 73.7113 49.7777C74.7502 50.8253 76.3307 51.3492 78.4562 51.3492C79.9601 51.3492 81.7977 50.9284 83.9692 50.0851L85.2943 54.8853C82.5727 56.0652 80.0078 56.6543 77.5961 56.6543C74.04 56.6543 71.2827 55.7028 69.3258 53.8016C67.3689 51.9005 66.3896 49.2299 66.3896 45.7864V24.7395H60.1238V24.7412Z" fill="white"/>
<path d="M142.005 56.079H136.276V19.6869H141.933L142.076 25.4626C143.127 23.5116 144.601 21.9659 146.498 20.8238C148.395 19.68 150.561 19.1099 152.995 19.1099C154.213 19.1099 155.407 19.2765 156.575 19.6148L155.715 25.3183C154.545 24.98 153.317 24.8134 152.028 24.8134C149.187 24.8134 146.806 25.9091 144.885 28.0988C142.964 30.2885 142.003 33.3095 142.003 37.1599V56.0773L142.005 56.079Z" fill="white"/>
<path d="M160.227 37.6649C160.227 32.2996 161.933 27.8635 165.346 24.3617C168.759 20.8599 173.066 19.1099 178.271 19.1099C183.476 19.1099 187.603 20.6847 190.801 23.8379C194.023 27.0151 195.635 31.1077 195.635 36.1123C195.635 36.1364 195.563 37.1239 195.42 39.0731H166.097C166.407 43.1417 167.642 46.2279 169.803 48.3335C171.963 50.4407 174.833 51.4935 178.414 51.4935C181.589 51.4935 184.178 50.8117 186.184 49.4532C188.188 48.0947 189.513 46.2107 190.159 43.8046H195.636C194.872 47.37 192.724 51.2702 189.621 53.4256C186.518 55.5792 182.783 56.6561 178.416 56.6561C172.925 56.6561 168.522 54.882 165.205 51.3304C161.887 47.7804 160.228 43.2259 160.228 37.6649H160.227ZM186.398 26.9069C184.227 25.0058 181.517 24.0543 178.271 24.0543C175.025 24.0543 172.28 25.0109 170.037 26.9241C167.794 28.8373 166.528 31.2881 166.242 34.273H189.943C189.752 31.264 188.57 28.8081 186.398 26.9069Z" fill="white"/>
<path d="M160.227 37.6649C160.227 32.2996 161.933 27.8635 165.346 24.3617C168.759 20.8599 173.066 19.1099 178.271 19.1099C183.476 19.1099 187.603 20.6847 190.801 23.8379C194.023 27.0151 195.635 31.1077 195.635 36.1123C195.635 36.1364 195.563 37.1239 195.42 39.0731H166.097C166.407 43.1417 167.642 46.2279 169.803 48.3335C171.963 50.4407 174.833 51.4935 178.414 51.4935C181.589 51.4935 184.178 50.8117 186.184 49.4532C188.188 48.0947 189.513 46.2107 190.159 43.8046H195.636C194.872 47.37 192.724 51.2702 189.621 53.4256C186.518 55.5792 182.783 56.6561 178.416 56.6561C172.925 56.6561 168.522 54.882 165.205 51.3304C161.887 47.7804 160.228 43.2259 160.228 37.6649H160.227ZM186.398 26.9069C184.227 25.0058 181.517 24.0543 178.271 24.0543C175.025 24.0543 172.28 25.0109 170.037 26.9241C167.794 28.8373 166.528 31.2881 166.242 34.273H189.943C189.752 31.264 188.57 28.8081 186.398 26.9069Z" fill="white"/>
<path d="M123.432 28.7718V22.4259C123.432 17.6996 119.346 13.8525 114.326 13.8525H107.6C102.579 13.8525 98.4934 17.6978 98.4934 22.4259V28.7718C95.1246 32.0606 93.0264 36.665 93.0264 41.7675C93.0264 51.756 101.057 59.8553 110.964 59.8553C120.871 59.8553 128.901 51.7577 128.901 41.7675C128.901 36.665 126.803 32.0606 123.434 28.7718H123.432ZM104.068 22.4259C104.068 20.8253 105.686 19.4736 107.602 19.4736H114.327C116.242 19.4736 117.861 20.8253 117.861 22.4259V25.0673C115.738 24.1742 113.409 23.6796 110.965 23.6796C108.521 23.6796 106.193 24.1742 104.069 25.0673V22.4259H104.068ZM110.964 54.2325C104.146 54.2325 98.6007 48.6406 98.6007 41.7657C98.6007 37.4928 100.745 33.7145 104.005 31.4681H104.068V31.4234C106.038 30.0821 108.412 29.299 110.964 29.299C113.515 29.299 115.887 30.0821 117.86 31.4234V31.4681H117.923C121.182 33.7145 123.327 37.4928 123.327 41.7657C123.327 48.6406 117.781 54.2325 110.964 54.2325Z" fill="white"/>
<path d="M114.717 40.2115C114.717 38.1214 113.036 36.4263 110.964 36.4263C108.891 36.4263 107.21 38.1214 107.21 40.2115C107.21 41.7039 108.073 42.9799 109.317 43.5982V47.0416C109.317 47.811 109.942 48.4413 110.705 48.4413H111.224C111.987 48.4413 112.612 47.811 112.612 47.0416V43.5982C113.856 42.9817 114.719 41.7039 114.719 40.2132L114.717 40.2115Z" fill="white"/>
<path d="M35.7725 56.6488C48.1236 56.7416 57.7922 48.9101 54.6993 36.3111C52.6692 28.3028 44.0752 26.1664 36.9953 24.5966C36.8523 24.5726 36.6496 24.5245 36.3856 24.4524C32.3867 23.4734 31.8655 23.5198 28.3128 22.1785C26.797 21.6015 25.6985 21.0038 25.019 20.3924C21.2806 17.0245 21.3215 10.8865 25.6815 7.97202C27.8989 6.43665 30.905 5.66724 34.6859 5.65007L55.2545 5.64664V0.0976562L33.7424 0.113113C33.3268 0.113113 32.9095 0.123418 32.4957 0.156048C29.8899 0.358704 27.4953 0.889386 25.3255 1.76183C16.5936 5.16748 13.4564 14.5669 18.1826 22.5563C18.7668 23.482 19.6201 24.351 20.7424 25.1548C23.2494 26.9272 24.3513 27.5334 27.4187 28.5141C30.8096 29.5823 31.559 29.6716 35.0981 30.4805C38.4736 31.243 40.2704 31.5608 43.2424 32.8471C45.7 33.9377 47.0489 35.0506 48.1474 37.3948C48.6362 38.4665 48.8814 39.6893 48.8814 41.0598C48.89 48.0308 42.258 50.9539 35.7725 50.9848C35.7725 50.9848 22.3314 50.9796 15.9822 50.9762V56.6832C22.3485 56.6729 35.7725 56.6488 35.7725 56.6488Z" fill="white"/>
<path d="M194.994 0L61.0998 0.149415V5.70355L194.994 5.62455C204.605 5.62455 212.422 13.717 212.422 23.6626V53.4306C212.422 63.8502 204.23 72.3291 194.162 72.3291L14.1685 72.2844C9.48662 72.2844 5.67843 68.4443 5.67843 63.7231C5.63244 60.7657 7.5723 58.1329 10.2207 57.1265V51.2065C7.77157 51.6754 5.56602 52.8432 3.76071 54.6465C-4.81623 63.2439 2.40162 78.2009 14.1702 78L194.163 77.9553C207.308 77.9553 218.002 66.9536 218.002 53.4323V23.6643C218.002 10.6171 207.681 0 194.996 0H194.994Z" fill="white"/>
</g>
<defs>
<clipPath id="clip0_89_1301">
<rect width="218" height="78" fill="white"/>
</clipPath>
</defs>
</svg>
