<svg width="230" height="189" viewBox="0 0 230 189" fill="none" xmlns="http://www.w3.org/2000/svg">
<g opacity="0.2">
<path d="M123.014 26.5467C130.644 21.0706 141.386 18.9714 149.792 23.2435C140.329 27.235 132.625 34.3497 128.042 43.3287C126.287 46.7978 124.708 50.8337 121.088 52.437C118.835 53.4347 116.177 53.242 113.844 52.4365C111.512 51.6309 109.437 50.2623 107.391 48.9083L106.777 48.8365C110.418 40.3262 115.384 32.0228 123.014 26.5467Z" fill="#F0F0F0"/>
<path d="M149.724 23.4253C141.876 23.6642 134.305 26.2995 128.086 30.9568C126.729 31.9363 125.539 33.1175 124.561 34.457C123.651 35.7917 123.126 37.3387 123.04 38.9374C122.928 40.4264 122.992 41.962 122.51 43.3988C122.253 44.1307 121.838 44.8014 121.295 45.3669C120.752 45.9323 120.091 46.3798 119.357 46.68C117.549 47.4742 115.554 47.5896 113.6 47.6366C111.43 47.6889 109.175 47.7097 107.202 48.7024C106.963 48.8227 106.784 48.4552 107.023 48.3351C110.457 46.608 114.469 47.7348 118.078 46.7069C119.762 46.2273 121.307 45.2517 121.983 43.6194C122.574 42.1921 122.51 40.6085 122.609 39.0999C122.67 37.5392 123.123 36.0167 123.929 34.6652C124.834 33.2817 125.975 32.0579 127.302 31.0463C130.254 28.7224 133.564 26.8639 137.11 25.5388C141.148 24.0047 145.427 23.153 149.761 23.0206C150.029 23.0125 149.99 23.4173 149.724 23.4253Z" fill="white"/>
<path d="M129.998 29.3428C129.335 28.2231 129.104 26.9109 129.345 25.6408C129.586 24.3706 130.284 23.225 131.315 22.4087C131.524 22.2443 131.797 22.5522 131.588 22.7168C130.627 23.4753 129.976 24.5424 129.754 25.7256C129.532 26.9089 129.753 28.1303 130.376 29.1694C130.511 29.3954 130.132 29.5675 129.998 29.3428Z" fill="white"/>
<path d="M122.994 38.1754C125.611 38.8859 128.408 38.6122 130.827 37.4088C131.067 37.2894 131.245 37.6567 131.005 37.776C128.486 39.0237 125.575 39.3028 122.853 38.5576C122.593 38.4864 122.736 38.1045 122.994 38.1754Z" fill="white"/>
<path d="M141.128 24.5428C141.291 25.028 141.576 25.4661 141.957 25.8178C142.338 26.1695 142.803 26.4239 143.31 26.558C143.57 26.626 143.427 27.0079 143.169 26.9403C142.609 26.7896 142.096 26.5082 141.675 26.1204C141.253 25.7327 140.935 25.2506 140.75 24.7162C140.728 24.6673 140.726 24.6121 140.745 24.5619C140.763 24.5116 140.801 24.4702 140.85 24.4459C140.9 24.4231 140.957 24.4206 141.009 24.4387C141.061 24.4569 141.104 24.4943 141.128 24.5428Z" fill="white"/>
<path d="M156.456 53.769C156.292 53.731 156.129 53.6931 155.962 53.6573C153.758 53.1579 151.517 52.8333 149.259 52.6867C149.084 52.6726 148.907 52.661 148.733 52.6518C143.289 52.3549 137.836 53.0423 132.651 54.6793C130.588 55.3326 128.58 56.1373 126.643 57.0866C123.968 58.3978 121.175 60.0262 118.295 60.3915C117.995 60.4329 117.692 60.4562 117.389 60.4613L106.735 49.5697C106.723 49.5331 106.709 49.4988 106.698 49.4621L106.252 49.0461C106.348 48.9904 106.45 48.9346 106.546 48.8788C106.602 48.8463 106.66 48.8162 106.716 48.7836C106.754 48.7627 106.792 48.7418 106.825 48.7208C106.837 48.7138 106.85 48.7069 106.86 48.7022C106.893 48.6812 106.926 48.6651 106.956 48.6465C107.521 48.3331 108.089 48.023 108.66 47.7162C108.663 47.7139 108.663 47.7138 108.668 47.7139C113.027 45.3871 117.624 43.3935 122.387 42.1411C122.53 42.1035 122.676 42.0633 122.824 42.0307C124.974 41.4777 127.167 41.0964 129.381 40.8906C130.593 40.7817 131.811 40.7324 133.028 40.7431C136.175 40.7766 139.296 41.2907 142.278 42.2666C148.223 44.2128 153.46 47.9843 156.247 53.3565C156.318 53.494 156.387 53.6292 156.456 53.769Z" fill="#F0F0F0"/>
<path d="M156.29 53.8758C149.875 49.476 142.197 47.1515 134.346 47.2326C132.655 47.2209 130.973 47.4682 129.362 47.9654C127.809 48.4989 126.43 49.4269 125.371 50.6529C124.359 51.7767 123.459 53.0401 122.184 53.9055C121.524 54.339 120.778 54.6323 119.993 54.7659C119.209 54.8996 118.405 54.8707 117.633 54.6811C115.696 54.2572 114.032 53.1828 112.443 52.0772C110.678 50.8495 108.865 49.5473 106.674 49.1855C106.408 49.1417 106.494 48.7441 106.759 48.7878C110.571 49.4172 113.076 52.6639 116.594 53.9541C118.236 54.5561 120.075 54.6811 121.626 53.7733C122.983 52.9795 123.912 51.6775 124.927 50.531C125.942 49.3202 127.247 48.3695 128.728 47.7619C130.308 47.1866 131.978 46.8768 133.665 46.8457C137.462 46.7168 141.256 47.1687 144.908 48.1848C149.083 49.3221 153.027 51.1448 156.57 53.5742C156.789 53.7247 156.507 54.0253 156.29 53.8758Z" fill="white"/>
<path d="M136.872 47.0618C137.037 45.7802 137.666 44.5971 138.645 43.7241C139.625 42.851 140.892 42.3447 142.221 42.2956C142.49 42.2865 142.517 42.692 142.248 42.701C141.01 42.7445 139.83 43.2163 138.919 44.0311C138.009 44.8459 137.428 45.9502 137.282 47.1445C137.25 47.404 136.84 47.3198 136.872 47.0618Z" fill="white"/>
<path d="M125.806 50.0172C127.456 52.1156 129.859 53.5331 132.536 53.9868C132.801 54.0315 132.716 54.4292 132.451 54.3844C129.666 53.9073 127.168 52.4273 125.457 50.2399C125.294 50.0313 125.644 49.8097 125.806 50.0172Z" fill="white"/>
<path d="M148.734 49.7399C148.564 50.2229 148.52 50.7394 148.606 51.243C148.692 51.7466 148.906 52.2215 149.227 52.6251C149.393 52.8316 149.042 53.053 148.878 52.8478C148.524 52.4003 148.289 51.8755 148.193 51.3193C148.097 50.7631 148.142 50.1925 148.325 49.6572C148.338 49.6054 148.37 49.5602 148.416 49.531C148.462 49.5017 148.518 49.4905 148.572 49.4997C148.626 49.5109 148.674 49.5425 148.704 49.5874C148.734 49.6324 148.745 49.6872 148.734 49.7399Z" fill="white"/>
<path d="M121.001 34.6935H120.175V12.7185C120.175 11.0483 119.836 9.39445 119.178 7.85137C118.52 6.30828 117.556 4.9062 116.341 3.72518C115.125 2.54415 113.682 1.60731 112.094 0.968145C110.505 0.328978 108.803 9.00423e-07 107.084 0H59.1629C57.4438 -3.60155e-06 55.7415 0.328967 54.1532 0.968129C52.5649 1.60729 51.1217 2.54413 49.9061 3.72515C48.6905 4.90617 47.7262 6.30825 47.0683 7.85134C46.4104 9.39442 46.0718 11.0483 46.0718 12.7185V133.275C46.0718 136.648 47.451 139.883 49.9061 142.268C52.3611 144.654 55.6909 145.994 59.1629 145.994H107.084C110.556 145.994 113.885 144.654 116.341 142.268C118.796 139.883 120.175 136.648 120.175 133.275V50.3357H121.001V34.6935Z" fill="#3F3D56"/>
<path d="M107.612 3.30909H101.357C101.644 3.99428 101.754 4.73767 101.677 5.4738C101.599 6.20993 101.336 6.91619 100.911 7.53037C100.486 8.14454 99.9124 8.64779 99.2403 8.99577C98.5681 9.34375 97.8181 9.52579 97.0564 9.52585H69.6032C68.8415 9.52579 68.0915 9.34376 67.4193 8.99578C66.7471 8.6478 66.1733 8.14455 65.7485 7.53037C65.3236 6.91619 65.0608 6.20993 64.9831 5.4738C64.9053 4.73767 65.0152 3.99427 65.3028 3.30908H59.4604C56.8676 3.30908 54.3809 4.30977 52.5475 6.091C50.7141 7.87222 49.6841 10.2881 49.6841 12.8071V133.187C49.6841 134.434 49.937 135.669 50.4283 136.822C50.9196 137.974 51.6397 139.021 52.5475 139.903C53.4553 140.785 54.533 141.485 55.7191 141.962C56.9053 142.439 58.1765 142.685 59.4604 142.685H107.612C108.896 142.685 110.167 142.439 111.353 141.962C112.539 141.485 113.617 140.785 114.525 139.903C115.433 139.021 116.153 137.974 116.644 136.822C117.135 135.669 117.388 134.434 117.388 133.187V12.8071C117.388 10.2881 116.358 7.87222 114.525 6.091C112.691 4.30977 110.205 3.30909 107.612 3.30909Z" fill="white"/>
<path d="M84.4612 104.014C80.9154 104.017 77.4037 103.341 74.1272 102.024C70.8506 100.707 67.8735 98.7756 65.3663 96.3397C62.859 93.9038 60.8708 91.0114 59.5154 87.8281C58.16 84.6448 57.464 81.2331 57.4673 77.7882C57.4623 72.9509 58.8364 68.2067 61.4373 64.0818C64.0382 59.957 67.7643 56.6126 72.2022 54.4196C75.4192 52.8295 78.9312 51.881 82.5313 51.6299C86.1314 51.3789 89.7469 51.8304 93.1646 52.9579C99.2174 54.9618 104.342 58.9881 107.624 64.3195C110.907 69.6509 112.136 75.9413 111.091 82.0704C110.046 88.1996 106.796 93.7694 101.919 97.7879C97.0424 101.806 90.8558 104.013 84.4612 104.014ZM84.4612 52.591C80.3661 52.5792 76.3276 53.5203 72.6835 55.3355C69.4982 56.9122 66.6828 59.1116 64.414 61.7956C62.1452 64.4796 60.472 67.5904 59.4995 70.9325C58.527 74.2747 58.2761 77.7761 58.7626 81.2169C59.2492 84.6577 60.4626 87.9637 62.3268 90.9272C64.1909 93.8908 66.6656 96.4479 69.5953 98.4381C72.5251 100.428 75.8467 101.809 79.3516 102.492C82.8566 103.176 86.4691 103.148 89.9626 102.411C93.456 101.674 96.7548 100.243 99.652 98.2084C101.053 97.2265 102.348 96.1099 103.518 94.8756C106.941 91.278 109.209 86.7889 110.045 81.958C110.882 77.127 110.25 72.164 108.228 67.6765C106.205 63.189 102.88 59.3718 98.6587 56.6924C94.4374 54.013 89.5036 52.5877 84.4612 52.591Z" fill="#F0F0F0"/>
<path d="M25.9697 54.5141C26.7106 54.6044 27.4222 54.8514 28.0542 55.2377C28.6863 55.624 29.2235 56.1403 29.628 56.7502C30.0325 57.36 30.2944 58.0486 30.3953 58.7675C30.4962 59.4863 30.4337 60.2179 30.2121 60.9107L39.1808 68.1688L35.9702 74.5398L23.4528 64.1171C22.2795 63.6783 21.3126 62.8366 20.7354 61.7515C20.1582 60.6663 20.0107 59.4132 20.3209 58.2295C20.6312 57.0458 21.3776 56.0138 22.4186 55.329C23.4597 54.6442 24.7232 54.3543 25.9697 54.5141Z" fill="#FFB6B6"/>
<path d="M109.733 84.7819C109.554 82.9034 108.81 79.5264 108.179 78.2777C106.239 73.3453 93.7063 69.2914 92.0233 68.7688L91.5963 64.1579L74.1825 62.3375L71.9735 68.234L65.728 70.5103C65.304 70.664 64.9202 70.9068 64.6041 71.2216C64.2881 71.5363 64.0477 71.9151 63.9001 72.3307L58.2967 73.9042L52.7674 75.4572L33.5576 62.3066L32.6506 62.8826L26.5885 66.7256L25.6533 67.3187L50.5125 89.1083L59.7469 87.0034L66.6913 85.4161L67.284 87.7541L65.7492 95.9681C70.196 100.29 76.0823 102.931 82.3523 103.418C88.6223 103.905 94.8657 102.206 99.9627 98.6249L103.908 95.2242C106.657 92.3358 108.686 88.8722 109.839 85.1007L109.733 84.7819Z" fill="#E4E4E4"/>
<path d="M88.361 58.5666C94.9346 56.4521 98.4992 49.5606 96.3227 43.1741C94.1463 36.7875 87.0529 33.3244 80.4793 35.4389C73.9057 37.5534 70.341 44.4449 72.5175 50.8314C74.694 57.218 81.7873 60.6812 88.361 58.5666Z" fill="#FFB6B6"/>
<path d="M74.5164 33.1157C75.7353 31.4245 77.5645 30.2407 79.6405 29.7996C81.6932 29.3895 83.8295 29.7702 85.5987 30.8614C87.5225 30.1085 89.5967 29.609 91.6346 29.8629C93.6725 30.1169 95.6698 31.2228 96.6128 33.0447C96.8111 33.5167 97.0518 33.9708 97.332 34.4018C98.1628 35.4787 99.7067 35.6184 101.07 35.6701C100.381 36.0607 99.6914 36.4513 99.0018 36.8419C99.6889 37.1529 100.376 37.464 101.063 37.7751C100.128 38.122 99.1929 38.4688 98.2578 38.8157C100.434 40.6746 100.961 43.9827 100.137 46.7563C99.3564 49.3823 97.5674 51.5928 95.5697 53.4853C95.18 52.0732 95.6087 50.5422 95.8942 49.0802C96.1957 47.5355 96.244 45.7292 95.1307 44.6385C94.3797 43.9029 93.2781 43.6806 92.2393 43.5021C86.9997 42.6018 81.7116 41.9918 76.4006 41.675C75.6898 41.5796 74.9658 41.6514 74.2895 41.8844C72.997 42.4424 72.4777 43.9748 72.1032 45.3335C71.9238 42.9485 72.0671 40.551 72.5295 38.2023C72.8838 36.4047 73.4419 34.6054 74.5164 33.1157Z" fill="#2F2E41"/>
<path d="M90.8132 116.37H75.993C75.4783 116.37 74.9846 116.171 74.6207 115.818C74.2567 115.464 74.0522 114.985 74.0522 114.485C74.0522 113.985 74.2567 113.505 74.6207 113.151C74.9846 112.798 75.4783 112.599 75.993 112.599H90.8132C91.3279 112.599 91.8215 112.798 92.1855 113.151C92.5495 113.505 92.7539 113.985 92.7539 114.485C92.7539 114.985 92.5495 115.464 92.1855 115.818C91.8215 116.171 91.3279 116.37 90.8132 116.37Z" fill="#6C63FF"/>
<path d="M42.1823 15.4698H1.41804C1.04239 15.4692 0.682331 15.3238 0.416921 15.0656C0.151511 14.8073 0.00244141 14.4573 0.00244141 14.0923C0.00244141 13.7274 0.151511 13.3773 0.416921 13.1191C0.682331 12.8608 1.04239 12.7154 1.41804 12.7148H42.1823C42.5583 12.7148 42.919 12.86 43.1849 13.1183C43.4508 13.3766 43.6001 13.727 43.6001 14.0923C43.6001 14.4576 43.4508 14.808 43.1849 15.0663C42.919 15.3247 42.5583 15.4698 42.1823 15.4698Z" fill="#6C63FF"/>
<path d="M65.718 24.2675H1.41774C1.04173 24.2675 0.681122 24.1224 0.415244 23.864C0.149367 23.6057 0 23.2554 0 22.8901C0 22.5248 0.149367 22.1744 0.415244 21.9161C0.681122 21.6578 1.04173 21.5127 1.41774 21.5127H65.718C66.094 21.5127 66.4546 21.6578 66.7205 21.9161C66.9864 22.1744 67.1357 22.5248 67.1357 22.8901C67.1357 23.2554 66.9864 23.6057 66.7205 23.864C66.4546 24.1224 66.094 24.2675 65.718 24.2675Z" fill="#6C63FF"/>
<path d="M53.3615 32.556H1.41774C1.04173 32.556 0.681121 32.4109 0.415244 32.1526C0.149367 31.8943 0 31.544 0 31.1787C0 30.8134 0.149367 30.463 0.415244 30.2047C0.681121 29.9464 1.04173 29.8013 1.41774 29.8013H53.3615C53.7375 29.8013 54.0981 29.9464 54.364 30.2047C54.6299 30.463 54.7792 30.8134 54.7792 31.1787C54.7792 31.544 54.6299 31.8943 54.364 32.1526C54.0981 32.4109 53.7375 32.556 53.3615 32.556Z" fill="#CACACA"/>
<path d="M30.7085 40.8143H1.41774C1.04173 40.8143 0.681121 40.6692 0.415244 40.4109C0.149367 40.1526 0 39.8023 0 39.437C0 39.0717 0.149367 38.7213 0.415244 38.463C0.681121 38.2047 1.04173 38.0596 1.41774 38.0596H30.7085C31.0845 38.0596 31.4451 38.2047 31.7109 38.463C31.9768 38.7213 32.1262 39.0717 32.1262 39.437C32.1262 39.8023 31.9768 40.1526 31.7109 40.4109C31.4451 40.6692 31.0845 40.8143 30.7085 40.8143Z" fill="#CACACA"/>
<path d="M46.8895 49.0712H1.41794C1.04232 49.0706 0.682293 48.9252 0.416899 48.667C0.151505 48.4087 0.00244141 48.0587 0.00244141 47.6938C0.00244141 47.3289 0.151505 46.9788 0.416899 46.7206C0.682293 46.4623 1.04232 46.317 1.41794 46.3164H46.8895C47.2651 46.317 47.6252 46.4623 47.8906 46.7206C48.156 46.9788 48.305 47.3289 48.305 47.6938C48.305 48.0587 48.156 48.4087 47.8906 48.667C47.6252 48.9252 47.2651 49.0706 46.8895 49.0712Z" fill="#CACACA"/>
<path d="M175.041 183.83L171.387 183.829L169.649 170.138L175.041 170.138L175.041 183.83Z" fill="#9F616A"/>
<path d="M176.478 188.742L162.529 188.741V188.57C162.529 187.171 163.101 185.829 164.12 184.84C165.138 183.851 166.519 183.295 167.959 183.295H167.959L170.507 181.417L175.261 183.295L176.478 183.295L176.478 188.742Z" fill="#2F2E41"/>
<path d="M172.912 119.482L171.301 100.394L170.035 93.2297L177.122 91.709L179.474 101.518L177.425 120.012C177.838 120.504 178.091 121.105 178.15 121.737C178.209 122.37 178.072 123.005 177.757 123.561C177.442 124.118 176.962 124.57 176.38 124.86C175.799 125.149 175.141 125.263 174.492 125.187C173.843 125.111 173.232 124.848 172.738 124.432C172.244 124.016 171.889 123.466 171.72 122.853C171.55 122.24 171.573 121.591 171.785 120.99C171.997 120.39 172.39 119.864 172.912 119.482Z" fill="#9F616A"/>
<path d="M155.633 183.83L151.98 183.829L150.242 170.138L155.634 170.138L155.633 183.83Z" fill="#9F616A"/>
<path d="M149.787 123.809L148.167 126.531C148.167 126.531 146.387 127.003 146.969 132.639C147.55 138.276 147.576 171.669 150.391 175.779L150.9 179.307L156.217 179.801L156.351 176.67L162.69 133.171C162.69 133.171 166.424 175.873 169.512 176.918L170.628 180.475L175.5 180.478L175.212 176.285L175.527 123.368L149.787 123.809Z" fill="#2F2E41"/>
<path d="M148.006 126.324L147.894 126.296C151.237 114.147 150.272 98.4165 147.912 81.5245L147.912 81.4545L156.445 73.8608H163.855L171.201 78.4666C175.95 80.7734 177.03 85.6586 177.04 85.7078L177.047 85.7426L174.137 95.6103L176.33 124.148L176.332 124.181L176.319 124.212C175.61 125.959 173.709 125.71 171.508 125.422C169.31 125.134 161.213 127.766 158.73 127.766C153.877 127.766 148.352 126.41 148.006 126.324Z" fill="#E4E4E4"/>
<path d="M169.663 82.3122L172.846 80.9668L177.04 85.9627L180.44 101.972L168.795 100.257L169.663 82.3122Z" fill="#E4E4E4"/>
<path d="M120.7 111.833L135.252 98.9137L140.31 93.5566L145.885 98.0719L139.34 105.882L123.031 115.625C122.883 116.244 122.548 116.805 122.07 117.238C121.591 117.67 120.99 117.954 120.344 118.052C119.698 118.15 119.037 118.059 118.445 117.789C117.853 117.519 117.358 117.084 117.023 116.538C116.688 115.993 116.528 115.363 116.564 114.729C116.6 114.095 116.831 113.486 117.226 112.98C117.622 112.474 118.164 112.094 118.783 111.89C119.402 111.686 120.069 111.666 120.7 111.833Z" fill="#9F616A"/>
<path d="M134.936 99.0544L138.966 93.9693C138.999 93.8963 142.343 86.6364 145.242 83.482C148.215 80.2461 150.556 81.9009 150.58 81.9187L150.638 81.9614L150.8 93.9109L139.639 106.867L134.936 99.0544Z" fill="#E4E4E4"/>
<path d="M166.12 66.7083C166.721 63.1106 164.207 59.7207 160.503 59.1369C156.8 58.5531 153.311 60.9963 152.71 64.5941C152.109 68.1918 154.624 71.5817 158.327 72.1655C162.03 72.7494 165.519 70.3061 166.12 66.7083Z" fill="#9F616A"/>
<path d="M153.205 64.6711C153.205 64.6711 153.151 62.351 152.849 61.3244C152.547 60.2978 151.943 59.4179 152.245 59.4179C152.547 59.4179 152.698 58.6846 152.698 58.6846C152.698 58.6846 153 58.538 153.151 58.6846C153.302 58.8313 153.453 57.658 153.453 57.658C153.453 57.658 153.603 57.218 153.754 57.5114C153.905 57.8047 153.905 57.658 154.056 57.218C154.207 56.7781 154.962 56.4848 154.962 56.4848C154.962 56.4848 157.83 56.6314 158.283 56.0448C158.736 55.4582 163.868 55.8981 164.925 56.6314C165.982 57.3647 170.661 60.0045 169.906 62.2043C169.152 64.4042 166.979 69.4693 166.434 69.9771C165.573 70.7802 164.977 71.0697 160.904 71.8572C160.106 72.0114 156.037 69.4829 156.037 69.0429C156.037 68.603 156.527 67.2077 155.739 67.0162C154.547 66.7266 154.413 68.1908 154.111 67.7509C153.809 67.3109 153.205 64.6711 153.205 64.6711Z" fill="#2F2E41"/>
<path d="M157.071 188.742L143.122 188.741V188.57C143.122 187.171 143.694 185.829 144.712 184.84C145.731 183.851 147.111 183.295 148.551 183.295H148.552L151.1 181.417L155.854 183.295L157.071 183.295L157.071 188.742Z" fill="#2F2E41"/>
</g>
</svg>
